<svg width="1290" height="4420" viewBox="0 0 1290 4420" fill="none" xmlns="http://www.w3.org/2000/svg">
<g filter="url(#filter0_f_306_525)">
<path d="M831.306 76.8886V273.511M260.124 3740.27L260.124 2422.56L831.306 1849.94L831.306 508.077" stroke="url(#paint0_linear_306_525)" stroke-width="7"/>
</g>
<g filter="url(#filter1_f_306_525)">
<path d="M1113.46 1311.81V1849.94L542.274 2422.56L542.274 3564.34M542.274 4348.85V3798.91" stroke="url(#paint1_linear_306_525)" stroke-width="7"/>
</g>
<g filter="url(#filter2_f_306_525)">
<path d="M542.274 801.286V1849.94L993.027 2301.82M1113.46 3478.11V2591.58" stroke="url(#paint2_linear_306_525)" stroke-width="7"/>
</g>
<g filter="url(#filter3_f_306_525)">
<path d="M253.242 1204.88L253.242 1708.51M824.425 4095.57L824.425 2422.56L390.876 1987.92" stroke="url(#paint3_linear_306_525)" stroke-width="7"/>
</g>
<g filter="url(#filter4_f_306_525)">
<ellipse cx="1113.46" cy="3519.5" rx="41.3941" ry="41.2903" transform="rotate(90 1113.46 3519.5)" fill="#5DBE5D"/>
</g>
<g filter="url(#filter5_f_306_525)">
<ellipse cx="1113.71" cy="1277.39" rx="41.3941" ry="41.2903" transform="rotate(90 1113.71 1277.39)" fill="#10911F"/>
</g>
<g filter="url(#filter6_f_306_525)">
<path d="M1114.18 1342.48C1078.12 1342.48 1048.87 1313.17 1048.87 1276.99C1048.87 1240.81 1078.12 1211.5 1114.18 1211.5C1150.25 1211.5 1179.5 1240.81 1179.5 1276.99C1179.5 1313.17 1150.25 1342.48 1114.18 1342.48Z" stroke="#10911F" stroke-width="7"/>
</g>
<g filter="url(#filter7_f_306_525)">
<ellipse cx="831.306" cy="42.3941" rx="41.3941" ry="41.2903" transform="rotate(90 831.306 42.3941)" fill="#10917B"/>
</g>
<g filter="url(#filter8_f_306_525)">
<ellipse cx="542.274" cy="766.791" rx="41.3941" ry="41.2903" transform="rotate(90 542.274 766.791)" fill="#109120"/>
</g>
<g filter="url(#filter9_f_306_525)">
<ellipse cx="824.425" cy="4133.51" rx="41.3941" ry="41.2903" transform="rotate(90 824.425 4133.51)" fill="#5DBF8E"/>
</g>
<g filter="url(#filter10_f_306_525)">
<path d="M824.425 4199C788.359 4199 759.108 4169.69 759.108 4133.51C759.108 4097.34 788.359 4068.02 824.425 4068.02C860.49 4068.02 889.742 4097.34 889.742 4133.51C889.742 4169.69 860.49 4199 824.425 4199Z" stroke="#5DBF8E" stroke-width="7"/>
</g>
<g filter="url(#filter11_f_306_525)">
<ellipse cx="542.275" cy="4377.61" rx="41.3941" ry="41.2903" transform="rotate(90 542.275 4377.61)" fill="#5DC05D"/>
</g>
<g filter="url(#filter12_f_306_525)">
<ellipse cx="260.124" cy="3781.66" rx="41.3941" ry="41.2903" transform="rotate(90 260.124 3781.66)" fill="#5CBDAA"/>
</g>
<g filter="url(#filter13_f_306_525)">
<path d="M260.124 3847.15C224.058 3847.15 194.807 3817.84 194.807 3781.66C194.807 3745.49 224.058 3716.17 260.124 3716.17C296.189 3716.17 325.441 3745.49 325.441 3781.66C325.441 3817.84 296.189 3847.15 260.124 3847.15Z" stroke="#5CBDAA" stroke-width="7"/>
</g>
<g filter="url(#filter14_f_306_525)">
<ellipse cx="253.71" cy="1167.39" rx="41.3941" ry="41.2903" transform="rotate(90 253.71 1167.39)" fill="#10914F"/>
</g>
<g filter="url(#filter15_f_306_525)">
<path d="M253.183 1232.48C217.117 1232.48 187.866 1203.17 187.866 1166.99C187.866 1130.81 217.117 1101.5 253.183 1101.5C289.248 1101.5 318.5 1130.81 318.5 1166.99C318.5 1203.17 289.248 1232.48 253.183 1232.48Z" stroke="#10914F" stroke-width="7"/>
</g>
<g filter="url(#filter16_f_306_525)">
<path d="M1112.96 2591.45C1019.88 2591.45 944.414 2515.81 944.414 2422.48C944.414 2329.14 1019.88 2253.5 1112.96 2253.5C1206.03 2253.5 1281.5 2329.14 1281.5 2422.48C1281.5 2515.81 1206.03 2591.45 1112.96 2591.45Z" stroke="#80F7FF" stroke-width="7"/>
</g>
<g filter="url(#filter17_f_306_525)">
<path d="M1113.3 2534.47C1051.9 2534.47 1002.11 2484.56 1002.11 2422.98C1002.11 2361.4 1051.9 2311.5 1113.3 2311.5C1174.71 2311.5 1224.5 2361.4 1224.5 2422.98C1224.5 2484.56 1174.71 2534.47 1113.3 2534.47Z" stroke="#FFF480" stroke-width="7"/>
</g>
<g filter="url(#filter18_f_306_525)">
<mask id="path-19-inside-1_306_525" fill="white">
<path d="M1101.95 2553.74C1072.8 2551.18 1045.34 2538.89 1023.98 2518.84C1002.62 2498.79 988.583 2472.13 984.123 2443.13C979.664 2414.13 985.037 2384.48 999.383 2358.9C1013.73 2333.33 1036.22 2313.32 1063.25 2302.08C1090.28 2290.84 1120.3 2289.01 1148.49 2296.9C1176.68 2304.78 1201.41 2321.92 1218.73 2345.57C1236.06 2369.22 1244.97 2398.01 1244.04 2427.33C1243.1 2456.65 1232.39 2484.82 1213.6 2507.31L1113.35 2423.16L1101.95 2553.74Z"/>
</mask>
<path d="M1101.95 2553.74C1072.8 2551.18 1045.34 2538.89 1023.98 2518.84C1002.62 2498.79 988.583 2472.13 984.123 2443.13C979.664 2414.13 985.037 2384.48 999.383 2358.9C1013.73 2333.33 1036.22 2313.32 1063.25 2302.08C1090.28 2290.84 1120.3 2289.01 1148.49 2296.9C1176.68 2304.78 1201.41 2321.92 1218.73 2345.57C1236.06 2369.22 1244.97 2398.01 1244.04 2427.33C1243.1 2456.65 1232.39 2484.82 1213.6 2507.31L1113.35 2423.16L1101.95 2553.74Z" stroke="#80E8FF" stroke-opacity="0.25" stroke-width="14" mask="url(#path-19-inside-1_306_525)"/>
</g>
<mask id="path-20-inside-2_306_525" fill="white">
<path d="M1113.3 2537.97C1090.62 2537.97 1068.44 2531.22 1049.58 2518.59C1030.72 2505.95 1016.02 2488 1007.34 2466.99C998.659 2445.98 996.388 2422.86 1000.81 2400.55C1005.24 2378.25 1016.16 2357.76 1032.2 2341.68L1047.52 2357.04C1034.51 2370.08 1025.65 2386.7 1022.06 2404.79C1018.47 2422.88 1020.32 2441.63 1027.36 2458.67C1034.4 2475.71 1046.32 2490.28 1061.62 2500.53C1076.92 2510.78 1094.91 2516.25 1113.3 2516.25V2537.97Z"/>
</mask>
<path d="M1113.3 2537.97C1090.62 2537.97 1068.44 2531.22 1049.58 2518.59C1030.72 2505.95 1016.02 2488 1007.34 2466.99C998.659 2445.98 996.388 2422.86 1000.81 2400.55C1005.24 2378.25 1016.16 2357.76 1032.2 2341.68L1047.52 2357.04C1034.51 2370.08 1025.65 2386.7 1022.06 2404.79C1018.47 2422.88 1020.32 2441.63 1027.36 2458.67C1034.4 2475.71 1046.32 2490.28 1061.62 2500.53C1076.92 2510.78 1094.91 2516.25 1113.3 2516.25V2537.97Z" stroke="#80FF80" stroke-width="14" mask="url(#path-20-inside-2_306_525)"/>
<mask id="path-21-inside-3_306_525" fill="white">
<path d="M1113.3 2537.97C1132.17 2537.97 1150.74 2533.3 1167.37 2524.39C1184.01 2515.48 1198.19 2502.59 1208.67 2486.87C1219.15 2471.14 1225.6 2453.07 1227.45 2434.25C1229.3 2415.44 1226.49 2396.45 1219.27 2378.98C1212.05 2361.51 1200.65 2346.1 1186.07 2334.1C1171.49 2322.1 1154.18 2313.9 1135.68 2310.21C1117.18 2306.52 1098.06 2307.46 1080.01 2312.95C1061.96 2318.44 1045.54 2328.31 1032.2 2341.68L1048.41 2357.93C1059.08 2347.23 1072.22 2339.33 1086.66 2334.94C1101.11 2330.55 1116.41 2329.8 1131.21 2332.75C1146.01 2335.7 1159.86 2342.27 1171.53 2351.86C1183.19 2361.46 1192.32 2373.8 1198.09 2387.78C1203.87 2401.75 1206.12 2416.94 1204.64 2432C1203.16 2447.06 1198 2461.52 1189.61 2474.1C1181.23 2486.68 1169.88 2496.99 1156.57 2504.12C1143.26 2511.26 1128.4 2514.99 1113.3 2514.99V2537.97Z"/>
</mask>
<path d="M1113.3 2537.97C1132.17 2537.97 1150.74 2533.3 1167.37 2524.39C1184.01 2515.48 1198.19 2502.59 1208.67 2486.87C1219.15 2471.14 1225.6 2453.07 1227.45 2434.25C1229.3 2415.44 1226.49 2396.45 1219.27 2378.98C1212.05 2361.51 1200.65 2346.1 1186.07 2334.1C1171.49 2322.1 1154.18 2313.9 1135.68 2310.21C1117.18 2306.52 1098.06 2307.46 1080.01 2312.95C1061.96 2318.44 1045.54 2328.31 1032.2 2341.68L1048.41 2357.93C1059.08 2347.23 1072.22 2339.33 1086.66 2334.94C1101.11 2330.55 1116.41 2329.8 1131.21 2332.75C1146.01 2335.7 1159.86 2342.27 1171.53 2351.86C1183.19 2361.46 1192.32 2373.8 1198.09 2387.78C1203.87 2401.75 1206.12 2416.94 1204.64 2432C1203.16 2447.06 1198 2461.52 1189.61 2474.1C1181.23 2486.68 1169.88 2496.99 1156.57 2504.12C1143.26 2511.26 1128.4 2514.99 1113.3 2514.99V2537.97Z" stroke="#80FF80" stroke-width="14" mask="url(#path-21-inside-3_306_525)"/>
<path d="M1112.98 2504.98C1067.41 2504.98 1030.46 2467.94 1030.46 2422.24C1030.46 2376.53 1067.41 2339.5 1112.98 2339.5C1158.55 2339.5 1195.5 2376.53 1195.5 2422.24C1195.5 2467.94 1158.55 2504.98 1112.98 2504.98Z" stroke="#80FFEA" stroke-width="7"/>
<path d="M1112.96 2591.45C1019.88 2591.45 944.414 2515.81 944.414 2422.48C944.414 2329.14 1019.88 2253.5 1112.96 2253.5C1206.03 2253.5 1281.5 2329.14 1281.5 2422.48C1281.5 2515.81 1206.03 2591.45 1112.96 2591.45Z" stroke="#80FF80" stroke-width="7"/>
<g filter="url(#filter19_f_306_525)">
<path d="M545.715 3798.86C481.145 3798.86 428.785 3746.38 428.785 3681.63C428.785 3616.87 481.145 3564.4 545.715 3564.4C610.286 3564.4 662.645 3616.87 662.645 3681.63C662.645 3746.38 610.286 3798.86 545.715 3798.86Z" stroke="#80F7FF" stroke-width="7"/>
</g>
<g filter="url(#filter20_f_306_525)">
<path d="M544.109 3757.01C501.71 3757.01 467.323 3722.55 467.323 3680.02C467.323 3637.49 501.71 3603.03 544.109 3603.03C586.509 3603.03 620.896 3637.49 620.896 3680.02C620.896 3722.55 586.509 3757.01 544.109 3757.01Z" stroke="#FFF480" stroke-width="7"/>
</g>
<path d="M544.109 3757.01C501.71 3757.01 467.323 3722.55 467.323 3680.02C467.323 3637.49 501.71 3603.03 544.109 3603.03C586.509 3603.03 620.896 3637.49 620.896 3680.02C620.896 3722.55 586.509 3757.01 544.109 3757.01Z" stroke="#80FF80" stroke-width="7"/>
<path d="M545.715 3798.86C481.145 3798.86 428.785 3746.38 428.785 3681.63C428.785 3616.87 481.145 3564.4 545.715 3564.4C610.286 3564.4 662.645 3616.87 662.645 3681.63C662.645 3746.38 610.286 3798.86 545.715 3798.86Z" stroke="#80FF80" stroke-width="7"/>
<g filter="url(#filter21_f_306_525)">
<path d="M827.866 511.027C761.631 511.027 707.935 457.199 707.935 390.795C707.935 324.391 761.631 270.562 827.866 270.562C894.1 270.562 947.796 324.391 947.796 390.795C947.796 457.199 894.1 511.027 827.866 511.027Z" stroke="#80F7FF"/>
</g>
<g filter="url(#filter22_f_306_525)">
<path d="M826.26 469.173C782.196 469.173 746.473 433.363 746.473 389.185C746.473 345.007 782.196 309.196 826.26 309.196C870.324 309.196 906.047 345.007 906.047 389.185C906.047 433.363 870.324 469.173 826.26 469.173Z" stroke="#FFF480"/>
</g>
<path d="M826.26 469.173C782.196 469.173 746.473 433.363 746.473 389.185C746.473 345.007 782.196 309.196 826.26 309.196C870.324 309.196 906.047 345.007 906.047 389.185C906.047 433.363 870.324 469.173 826.26 469.173Z" stroke="#80FF80"/>
<path d="M827.866 511.027C761.631 511.027 707.935 457.199 707.935 390.795C707.935 324.391 761.631 270.562 827.866 270.562C894.1 270.562 947.796 324.391 947.796 390.795C947.796 457.199 894.1 511.027 827.866 511.027Z" stroke="#80FF80"/>
<g filter="url(#filter23_f_306_525)">
<path d="M827.866 509.027C762.74 509.027 709.935 456.099 709.935 390.795C709.935 325.491 762.74 272.562 827.866 272.562C892.991 272.562 945.796 325.491 945.796 390.795C945.796 456.099 892.991 509.027 827.866 509.027Z" stroke="#80F7FF" stroke-width="5"/>
</g>
<g filter="url(#filter24_f_306_525)">
<path d="M826.26 467.173C783.305 467.173 748.473 432.263 748.473 389.185C748.473 346.107 783.305 311.196 826.26 311.196C869.214 311.196 904.047 346.107 904.047 389.185C904.047 432.263 869.214 467.173 826.26 467.173Z" stroke="#FFF480" stroke-width="5"/>
</g>
<path d="M828.713 468.477C785.759 468.477 750.927 433.566 750.927 390.489C750.927 347.411 785.759 312.5 828.713 312.5C871.668 312.5 906.5 347.411 906.5 390.489C906.5 433.566 871.668 468.477 828.713 468.477Z" stroke="#80FF80" stroke-width="5"/>
<path d="M827.866 509.027C762.74 509.027 709.935 456.099 709.935 390.795C709.935 325.491 762.74 272.562 827.866 272.562C892.991 272.562 945.796 325.491 945.796 390.795C945.796 456.099 892.991 509.027 827.866 509.027Z" stroke="#80FF80" stroke-width="5"/>
<g filter="url(#filter25_f_306_525)">
<path d="M263.564 2136.2C122.981 2136.2 8.99982 2021.94 8.99982 1880.98C8.99982 1740.02 122.981 1625.77 263.564 1625.77C404.148 1625.77 518.129 1740.02 518.129 1880.98C518.129 2021.94 404.148 2136.2 263.564 2136.2Z" stroke="#80F7FF" stroke-width="7"/>
</g>
<g filter="url(#filter26_f_306_525)">
<path d="M260.125 2046.51C167.05 2046.51 91.5822 1970.86 91.5822 1877.53C91.5822 1784.2 167.05 1708.56 260.125 1708.56C353.201 1708.56 428.668 1784.2 428.668 1877.53C428.668 1970.86 353.201 2046.51 260.125 2046.51Z" stroke="#FFF480" stroke-width="7"/>
</g>
<path d="M260.125 2046.51C167.05 2046.51 91.5822 1970.86 91.5822 1877.53C91.5822 1784.2 167.05 1708.56 260.125 1708.56C353.201 1708.56 428.668 1784.2 428.668 1877.53C428.668 1970.86 353.201 2046.51 260.125 2046.51Z" stroke="#80FFA2" stroke-width="7"/>
<g filter="url(#filter27_f_306_525)">
<mask id="path-39-inside-4_306_525" fill="white">
<path d="M367.178 1984.86C349.573 2002.51 327.897 2015.53 304.072 2022.78C280.247 2030.02 255.006 2031.27 230.587 2026.4C206.168 2021.53 183.324 2010.69 164.078 1994.86C144.832 1979.03 129.778 1958.68 120.25 1935.62C110.722 1912.56 107.014 1887.5 109.455 1862.66C111.895 1837.82 120.408 1813.96 134.241 1793.21C148.073 1772.46 166.797 1755.44 188.755 1743.68C210.713 1731.91 235.226 1725.76 260.124 1725.76L260.124 1798.42C247.145 1798.42 234.367 1801.62 222.921 1807.76C211.475 1813.89 201.715 1822.76 194.504 1833.58C187.294 1844.4 182.856 1856.83 181.584 1869.78C180.312 1882.73 182.245 1895.79 187.211 1907.81C192.178 1919.83 200.025 1930.44 210.057 1938.69C220.09 1946.95 231.998 1952.59 244.727 1955.13C257.456 1957.67 270.613 1957.02 283.033 1953.25C295.452 1949.47 306.751 1942.68 315.928 1933.48L367.178 1984.86Z"/>
</mask>
<path d="M367.178 1984.86C349.573 2002.51 327.897 2015.53 304.072 2022.78C280.247 2030.02 255.006 2031.27 230.587 2026.4C206.168 2021.53 183.324 2010.69 164.078 1994.86C144.832 1979.03 129.778 1958.68 120.25 1935.62C110.722 1912.56 107.014 1887.5 109.455 1862.66C111.895 1837.82 120.408 1813.96 134.241 1793.21C148.073 1772.46 166.797 1755.44 188.755 1743.68C210.713 1731.91 235.226 1725.76 260.124 1725.76L260.124 1798.42C247.145 1798.42 234.367 1801.62 222.921 1807.76C211.475 1813.89 201.715 1822.76 194.504 1833.58C187.294 1844.4 182.856 1856.83 181.584 1869.78C180.312 1882.73 182.245 1895.79 187.211 1907.81C192.178 1919.83 200.025 1930.44 210.057 1938.69C220.09 1946.95 231.998 1952.59 244.727 1955.13C257.456 1957.67 270.613 1957.02 283.033 1953.25C295.452 1949.47 306.751 1942.68 315.928 1933.48L367.178 1984.86Z" stroke="#D9FF80" stroke-width="18" mask="url(#path-39-inside-4_306_525)"/>
</g>
<g filter="url(#filter28_f_306_525)">
<path d="M260.124 2077C150.263 2077 61.1719 1987.72 61.1719 1877.53C61.1719 1767.35 150.263 1678.06 260.124 1678.06C369.984 1678.06 459.075 1767.35 459.075 1877.53C459.075 1987.72 369.984 2077 260.124 2077Z" stroke="#FFB580" stroke-opacity="0.25" stroke-width="15"/>
</g>
<g filter="url(#filter29_f_306_525)">
<path d="M263.564 1963.72C217.997 1963.72 181.043 1926.69 181.043 1880.98C181.043 1835.28 217.997 1798.25 263.564 1798.25C309.132 1798.25 346.086 1835.28 346.086 1880.98C346.086 1926.69 309.132 1963.72 263.564 1963.72Z" stroke="#FFB580" stroke-opacity="0.25" stroke-width="7"/>
</g>
<path d="M263.564 2136.2C122.981 2136.2 8.99982 2021.94 8.99982 1880.98C8.99982 1740.02 122.981 1625.77 263.564 1625.77C404.148 1625.77 518.129 1740.02 518.129 1880.98C518.129 2021.94 404.148 2136.2 263.564 2136.2Z" stroke="#80FF80" stroke-width="7"/>
<defs>
<filter id="filter0_f_306_525" x="255.624" y="75.8887" width="580.183" height="3665.38" filterUnits="userSpaceOnUse" color-interpolation-filters="sRGB">
<feFlood flood-opacity="0" result="BackgroundImageFix"/>
<feBlend mode="normal" in="SourceGraphic" in2="BackgroundImageFix" result="shape"/>
<feGaussianBlur stdDeviation="0.5" result="effect1_foregroundBlur_306_525"/>
</filter>
<filter id="filter1_f_306_525" x="537.774" y="1310.81" width="580.183" height="3039.03" filterUnits="userSpaceOnUse" color-interpolation-filters="sRGB">
<feFlood flood-opacity="0" result="BackgroundImageFix"/>
<feBlend mode="normal" in="SourceGraphic" in2="BackgroundImageFix" result="shape"/>
<feGaussianBlur stdDeviation="0.5" result="effect1_foregroundBlur_306_525"/>
</filter>
<filter id="filter2_f_306_525" x="537.774" y="800.286" width="580.183" height="2678.82" filterUnits="userSpaceOnUse" color-interpolation-filters="sRGB">
<feFlood flood-opacity="0" result="BackgroundImageFix"/>
<feBlend mode="normal" in="SourceGraphic" in2="BackgroundImageFix" result="shape"/>
<feGaussianBlur stdDeviation="0.5" result="effect1_foregroundBlur_306_525"/>
</filter>
<filter id="filter3_f_306_525" x="248.742" y="1203.88" width="580.183" height="2892.69" filterUnits="userSpaceOnUse" color-interpolation-filters="sRGB">
<feFlood flood-opacity="0" result="BackgroundImageFix"/>
<feBlend mode="normal" in="SourceGraphic" in2="BackgroundImageFix" result="shape"/>
<feGaussianBlur stdDeviation="0.5" result="effect1_foregroundBlur_306_525"/>
</filter>
<filter id="filter4_f_306_525" x="1071.17" y="3477.11" width="84.5806" height="84.7881" filterUnits="userSpaceOnUse" color-interpolation-filters="sRGB">
<feFlood flood-opacity="0" result="BackgroundImageFix"/>
<feBlend mode="normal" in="SourceGraphic" in2="BackgroundImageFix" result="shape"/>
<feGaussianBlur stdDeviation="0.5" result="effect1_foregroundBlur_306_525"/>
</filter>
<filter id="filter5_f_306_525" x="1071.42" y="1235" width="84.5806" height="84.7883" filterUnits="userSpaceOnUse" color-interpolation-filters="sRGB">
<feFlood flood-opacity="0" result="BackgroundImageFix"/>
<feBlend mode="normal" in="SourceGraphic" in2="BackgroundImageFix" result="shape"/>
<feGaussianBlur stdDeviation="0.5" result="effect1_foregroundBlur_306_525"/>
</filter>
<filter id="filter6_f_306_525" x="1044.37" y="1207" width="139.634" height="139.98" filterUnits="userSpaceOnUse" color-interpolation-filters="sRGB">
<feFlood flood-opacity="0" result="BackgroundImageFix"/>
<feBlend mode="normal" in="SourceGraphic" in2="BackgroundImageFix" result="shape"/>
<feGaussianBlur stdDeviation="0.5" result="effect1_foregroundBlur_306_525"/>
</filter>
<filter id="filter7_f_306_525" x="789.016" y="0" width="84.5806" height="84.7883" filterUnits="userSpaceOnUse" color-interpolation-filters="sRGB">
<feFlood flood-opacity="0" result="BackgroundImageFix"/>
<feBlend mode="normal" in="SourceGraphic" in2="BackgroundImageFix" result="shape"/>
<feGaussianBlur stdDeviation="0.5" result="effect1_foregroundBlur_306_525"/>
</filter>
<filter id="filter8_f_306_525" x="499.984" y="724.397" width="84.5807" height="84.7883" filterUnits="userSpaceOnUse" color-interpolation-filters="sRGB">
<feFlood flood-opacity="0" result="BackgroundImageFix"/>
<feBlend mode="normal" in="SourceGraphic" in2="BackgroundImageFix" result="shape"/>
<feGaussianBlur stdDeviation="0.5" result="effect1_foregroundBlur_306_525"/>
</filter>
<filter id="filter9_f_306_525" x="782.135" y="4091.12" width="84.5806" height="84.7881" filterUnits="userSpaceOnUse" color-interpolation-filters="sRGB">
<feFlood flood-opacity="0" result="BackgroundImageFix"/>
<feBlend mode="normal" in="SourceGraphic" in2="BackgroundImageFix" result="shape"/>
<feGaussianBlur stdDeviation="0.5" result="effect1_foregroundBlur_306_525"/>
</filter>
<filter id="filter10_f_306_525" x="754.607" y="4063.52" width="139.635" height="139.98" filterUnits="userSpaceOnUse" color-interpolation-filters="sRGB">
<feFlood flood-opacity="0" result="BackgroundImageFix"/>
<feBlend mode="normal" in="SourceGraphic" in2="BackgroundImageFix" result="shape"/>
<feGaussianBlur stdDeviation="0.5" result="effect1_foregroundBlur_306_525"/>
</filter>
<filter id="filter11_f_306_525" x="499.984" y="4335.21" width="84.5807" height="84.7881" filterUnits="userSpaceOnUse" color-interpolation-filters="sRGB">
<feFlood flood-opacity="0" result="BackgroundImageFix"/>
<feBlend mode="normal" in="SourceGraphic" in2="BackgroundImageFix" result="shape"/>
<feGaussianBlur stdDeviation="0.5" result="effect1_foregroundBlur_306_525"/>
</filter>
<filter id="filter12_f_306_525" x="217.833" y="3739.27" width="84.5807" height="84.7881" filterUnits="userSpaceOnUse" color-interpolation-filters="sRGB">
<feFlood flood-opacity="0" result="BackgroundImageFix"/>
<feBlend mode="normal" in="SourceGraphic" in2="BackgroundImageFix" result="shape"/>
<feGaussianBlur stdDeviation="0.5" result="effect1_foregroundBlur_306_525"/>
</filter>
<filter id="filter13_f_306_525" x="190.307" y="3711.67" width="139.634" height="139.98" filterUnits="userSpaceOnUse" color-interpolation-filters="sRGB">
<feFlood flood-opacity="0" result="BackgroundImageFix"/>
<feBlend mode="normal" in="SourceGraphic" in2="BackgroundImageFix" result="shape"/>
<feGaussianBlur stdDeviation="0.5" result="effect1_foregroundBlur_306_525"/>
</filter>
<filter id="filter14_f_306_525" x="211.419" y="1125" width="84.5807" height="84.7883" filterUnits="userSpaceOnUse" color-interpolation-filters="sRGB">
<feFlood flood-opacity="0" result="BackgroundImageFix"/>
<feBlend mode="normal" in="SourceGraphic" in2="BackgroundImageFix" result="shape"/>
<feGaussianBlur stdDeviation="0.5" result="effect1_foregroundBlur_306_525"/>
</filter>
<filter id="filter15_f_306_525" x="183.366" y="1097" width="139.634" height="139.98" filterUnits="userSpaceOnUse" color-interpolation-filters="sRGB">
<feFlood flood-opacity="0" result="BackgroundImageFix"/>
<feBlend mode="normal" in="SourceGraphic" in2="BackgroundImageFix" result="shape"/>
<feGaussianBlur stdDeviation="0.5" result="effect1_foregroundBlur_306_525"/>
</filter>
<filter id="filter16_f_306_525" x="935.914" y="2245" width="354.086" height="354.951" filterUnits="userSpaceOnUse" color-interpolation-filters="sRGB">
<feFlood flood-opacity="0" result="BackgroundImageFix"/>
<feBlend mode="normal" in="SourceGraphic" in2="BackgroundImageFix" result="shape"/>
<feGaussianBlur stdDeviation="2.5" result="effect1_foregroundBlur_306_525"/>
</filter>
<filter id="filter17_f_306_525" x="990.609" y="2300" width="245.391" height="245.967" filterUnits="userSpaceOnUse" color-interpolation-filters="sRGB">
<feFlood flood-opacity="0" result="BackgroundImageFix"/>
<feBlend mode="normal" in="SourceGraphic" in2="BackgroundImageFix" result="shape"/>
<feGaussianBlur stdDeviation="4" result="effect1_foregroundBlur_306_525"/>
</filter>
<filter id="filter18_f_306_525" x="978.596" y="2288.08" width="269.506" height="269.664" filterUnits="userSpaceOnUse" color-interpolation-filters="sRGB">
<feFlood flood-opacity="0" result="BackgroundImageFix"/>
<feBlend mode="normal" in="SourceGraphic" in2="BackgroundImageFix" result="shape"/>
<feGaussianBlur stdDeviation="2" result="effect1_foregroundBlur_306_525"/>
</filter>
<filter id="filter19_f_306_525" x="420.285" y="3555.9" width="250.86" height="251.466" filterUnits="userSpaceOnUse" color-interpolation-filters="sRGB">
<feFlood flood-opacity="0" result="BackgroundImageFix"/>
<feBlend mode="normal" in="SourceGraphic" in2="BackgroundImageFix" result="shape"/>
<feGaussianBlur stdDeviation="2.5" result="effect1_foregroundBlur_306_525"/>
</filter>
<filter id="filter20_f_306_525" x="459.823" y="3595.53" width="168.573" height="168.977" filterUnits="userSpaceOnUse" color-interpolation-filters="sRGB">
<feFlood flood-opacity="0" result="BackgroundImageFix"/>
<feBlend mode="normal" in="SourceGraphic" in2="BackgroundImageFix" result="shape"/>
<feGaussianBlur stdDeviation="2" result="effect1_foregroundBlur_306_525"/>
</filter>
<filter id="filter21_f_306_525" x="702.436" y="265.062" width="250.86" height="251.466" filterUnits="userSpaceOnUse" color-interpolation-filters="sRGB">
<feFlood flood-opacity="0" result="BackgroundImageFix"/>
<feBlend mode="normal" in="SourceGraphic" in2="BackgroundImageFix" result="shape"/>
<feGaussianBlur stdDeviation="2.5" result="effect1_foregroundBlur_306_525"/>
</filter>
<filter id="filter22_f_306_525" x="741.973" y="304.696" width="168.573" height="168.977" filterUnits="userSpaceOnUse" color-interpolation-filters="sRGB">
<feFlood flood-opacity="0" result="BackgroundImageFix"/>
<feBlend mode="normal" in="SourceGraphic" in2="BackgroundImageFix" result="shape"/>
<feGaussianBlur stdDeviation="2" result="effect1_foregroundBlur_306_525"/>
</filter>
<filter id="filter23_f_306_525" x="702.436" y="265.062" width="250.86" height="251.466" filterUnits="userSpaceOnUse" color-interpolation-filters="sRGB">
<feFlood flood-opacity="0" result="BackgroundImageFix"/>
<feBlend mode="normal" in="SourceGraphic" in2="BackgroundImageFix" result="shape"/>
<feGaussianBlur stdDeviation="2.5" result="effect1_foregroundBlur_306_525"/>
</filter>
<filter id="filter24_f_306_525" x="741.973" y="304.696" width="168.573" height="168.977" filterUnits="userSpaceOnUse" color-interpolation-filters="sRGB">
<feFlood flood-opacity="0" result="BackgroundImageFix"/>
<feBlend mode="normal" in="SourceGraphic" in2="BackgroundImageFix" result="shape"/>
<feGaussianBlur stdDeviation="2" result="effect1_foregroundBlur_306_525"/>
</filter>
<filter id="filter25_f_306_525" x="0.499756" y="1617.27" width="526.129" height="527.427" filterUnits="userSpaceOnUse" color-interpolation-filters="sRGB">
<feFlood flood-opacity="0" result="BackgroundImageFix"/>
<feBlend mode="normal" in="SourceGraphic" in2="BackgroundImageFix" result="shape"/>
<feGaussianBlur stdDeviation="2.5" result="effect1_foregroundBlur_306_525"/>
</filter>
<filter id="filter26_f_306_525" x="84.0822" y="1701.06" width="352.086" height="352.951" filterUnits="userSpaceOnUse" color-interpolation-filters="sRGB">
<feFlood flood-opacity="0" result="BackgroundImageFix"/>
<feBlend mode="normal" in="SourceGraphic" in2="BackgroundImageFix" result="shape"/>
<feGaussianBlur stdDeviation="2" result="effect1_foregroundBlur_306_525"/>
</filter>
<filter id="filter27_f_306_525" x="107.726" y="1724.76" width="260.452" height="305.557" filterUnits="userSpaceOnUse" color-interpolation-filters="sRGB">
<feFlood flood-opacity="0" result="BackgroundImageFix"/>
<feBlend mode="normal" in="SourceGraphic" in2="BackgroundImageFix" result="shape"/>
<feGaussianBlur stdDeviation="0.5" result="effect1_foregroundBlur_306_525"/>
</filter>
<filter id="filter28_f_306_525" x="43.6719" y="1660.56" width="432.903" height="433.941" filterUnits="userSpaceOnUse" color-interpolation-filters="sRGB">
<feFlood flood-opacity="0" result="BackgroundImageFix"/>
<feBlend mode="normal" in="SourceGraphic" in2="BackgroundImageFix" result="shape"/>
<feGaussianBlur stdDeviation="5" result="effect1_foregroundBlur_306_525"/>
</filter>
<filter id="filter29_f_306_525" x="176.543" y="1793.75" width="174.043" height="174.476" filterUnits="userSpaceOnUse" color-interpolation-filters="sRGB">
<feFlood flood-opacity="0" result="BackgroundImageFix"/>
<feBlend mode="normal" in="SourceGraphic" in2="BackgroundImageFix" result="shape"/>
<feGaussianBlur stdDeviation="0.5" result="effect1_foregroundBlur_306_525"/>
</filter>
<linearGradient id="paint0_linear_306_525" x1="831.306" y1="1908.58" x2="260.124" y2="1908.58" gradientUnits="userSpaceOnUse">
<stop stop-color="#10917C"/>
<stop offset="1" stop-color="#80FFEA"/>
</linearGradient>
<linearGradient id="paint1_linear_306_525" x1="1113.46" y1="2988.28" x2="542.274" y2="2988.28" gradientUnits="userSpaceOnUse">
<stop stop-color="#10911F"/>
<stop offset="1" stop-color="#80FF80"/>
</linearGradient>
<linearGradient id="paint2_linear_306_525" x1="542.274" y1="2139.7" x2="1113.46" y2="2139.7" gradientUnits="userSpaceOnUse">
<stop stop-color="#10911F"/>
<stop offset="1" stop-color="#80FF80"/>
</linearGradient>
<linearGradient id="paint3_linear_306_525" x1="253.242" y1="2139.7" x2="824.425" y2="2139.7" gradientUnits="userSpaceOnUse">
<stop stop-color="#109151"/>
<stop offset="1" stop-color="#80FFBF"/>
</linearGradient>
</defs>
</svg>
