<svg width="594" height="182" viewBox="0 0 594 182" fill="none" xmlns="http://www.w3.org/2000/svg">
<g filter="url(#filter0_f_317_621)">
<path d="M11.169 66.0322H37.5158M502.052 142.785H325.482L248.753 66.0322H68.9471" stroke="url(#paint0_linear_317_621)" stroke-width="2"/>
</g>
<g filter="url(#filter1_f_317_621)">
<path d="M176.646 28.1182H248.753L325.482 104.871H478.479M583.6 104.871H509.91" stroke="url(#paint1_linear_317_621)" stroke-width="2"/>
</g>
<g filter="url(#filter2_f_317_621)">
<path d="M108.236 104.871H248.753L309.304 44.3012M466.923 28.1184H348.131" stroke="url(#paint2_linear_317_621)" stroke-width="2"/>
</g>
<g filter="url(#filter3_f_317_621)">
<path d="M162.317 143.709H229.801M549.661 66.9568H325.482L267.242 125.215" stroke="url(#paint3_linear_317_621)" stroke-width="2"/>
</g>
<g filter="url(#filter4_f_317_621)">
<ellipse cx="472.47" cy="28.1182" rx="5.5467" ry="5.54839" fill="#5DBE5D"/>
</g>
<g filter="url(#filter5_f_317_621)">
<ellipse cx="172.023" cy="28.1182" rx="5.5467" ry="5.54839" fill="#10911F"/>
</g>
<g filter="url(#filter6_f_317_621)">
<path d="M180.268 28.1184C180.268 32.6736 176.576 36.3657 172.023 36.3657C167.47 36.3657 163.779 32.6736 163.779 28.1184C163.779 23.5633 167.47 19.8711 172.023 19.8711C176.576 19.8711 180.268 23.5633 180.268 28.1184Z" stroke="#10911F" stroke-width="2"/>
</g>
<g filter="url(#filter7_f_317_621)">
<ellipse cx="6.5467" cy="66.0323" rx="5.5467" ry="5.54839" fill="#10917B"/>
</g>
<g filter="url(#filter8_f_317_621)">
<ellipse cx="103.614" cy="104.871" rx="5.5467" ry="5.54839" fill="#109120"/>
</g>
<g filter="url(#filter9_f_317_621)">
<ellipse cx="554.746" cy="66.9571" rx="5.5467" ry="5.54839" fill="#5DBF8E"/>
</g>
<g filter="url(#filter10_f_317_621)">
<path d="M562.99 66.9568C562.99 71.5119 559.299 75.2041 554.746 75.2041C550.193 75.2041 546.501 71.5119 546.501 66.9568C546.501 62.4016 550.193 58.7095 554.746 58.7095C559.299 58.7095 562.99 62.4016 562.99 66.9568Z" stroke="#5DBF8E" stroke-width="2"/>
</g>
<g filter="url(#filter11_f_317_621)">
<ellipse cx="587.453" cy="104.871" rx="5.5467" ry="5.54839" fill="#5DC05D"/>
</g>
<g filter="url(#filter12_f_317_621)">
<ellipse cx="507.599" cy="142.785" rx="5.5467" ry="5.54839" fill="#5CBDAA"/>
</g>
<g filter="url(#filter13_f_317_621)">
<path d="M515.843 142.785C515.843 147.34 512.152 151.032 507.599 151.032C503.046 151.032 499.354 147.34 499.354 142.785C499.354 138.23 503.046 134.538 507.599 134.538C512.152 134.538 515.843 138.23 515.843 142.785Z" stroke="#5CBDAA" stroke-width="2"/>
</g>
<g filter="url(#filter14_f_317_621)">
<ellipse cx="157.232" cy="143.71" rx="5.5467" ry="5.54839" fill="#10914F"/>
</g>
<g filter="url(#filter15_f_317_621)">
<path d="M165.477 143.71C165.477 148.265 161.785 151.957 157.232 151.957C152.679 151.957 148.988 148.265 148.988 143.71C148.988 139.155 152.679 135.462 157.232 135.462C161.785 135.462 165.477 139.155 165.477 143.71Z" stroke="#10914F" stroke-width="2"/>
</g>
<g filter="url(#filter16_f_317_621)">
<path d="M347.593 28.1183C347.593 40.3342 337.693 50.2366 325.482 50.2366C313.271 50.2366 303.371 40.3342 303.371 28.1183C303.371 15.9024 313.271 6 325.482 6C337.693 6 347.593 15.9024 347.593 28.1183Z" stroke="#80F7FF" stroke-width="2"/>
</g>
<g filter="url(#filter17_f_317_621)">
<path d="M339.581 28.4263C339.581 36.3863 333.131 42.8385 325.174 42.8385C317.217 42.8385 310.766 36.3863 310.766 28.4263C310.766 20.4664 317.217 14.0142 325.174 14.0142C333.131 14.0142 339.581 20.4664 339.581 28.4263Z" stroke="#FFF480" stroke-width="2"/>
</g>
<g filter="url(#filter18_f_317_621)">
<mask id="path-19-inside-1_317_621" fill="white">
<path d="M342.979 29.6497C342.637 33.5673 340.99 37.2567 338.303 40.1273C335.616 42.998 332.044 44.8838 328.158 45.4831C324.273 46.0823 320.298 45.3603 316.872 43.4325C313.445 41.5048 310.764 38.4828 309.258 34.8503C307.751 31.2178 307.507 27.1848 308.563 23.3968C309.62 19.6089 311.916 16.285 315.085 13.9571C318.254 11.6293 322.111 10.4322 326.041 10.5573C329.97 10.6825 333.744 12.1227 336.758 14.6475L325.482 28.1183L342.979 29.6497Z"/>
</mask>
<path d="M342.979 29.6497C342.637 33.5673 340.99 37.2567 338.303 40.1273C335.616 42.998 332.044 44.8838 328.158 45.4831C324.273 46.0823 320.298 45.3603 316.872 43.4325C313.445 41.5048 310.764 38.4828 309.258 34.8503C307.751 31.2178 307.507 27.1848 308.563 23.3968C309.62 19.6089 311.916 16.285 315.085 13.9571C318.254 11.6293 322.111 10.4322 326.041 10.5573C329.97 10.6825 333.744 12.1227 336.758 14.6475L325.482 28.1183L342.979 29.6497Z" stroke="#80E8FF" stroke-opacity="0.25" stroke-width="4" mask="url(#path-19-inside-1_317_621)"/>
</g>
<mask id="path-20-inside-2_317_621" fill="white">
<path d="M340.581 28.4263C340.581 31.4746 339.678 34.4544 337.985 36.9889C336.292 39.5234 333.885 41.4988 331.07 42.6653C328.255 43.8319 325.157 44.1371 322.168 43.5424C319.179 42.9477 316.434 41.4798 314.279 39.3244L316.337 37.2657C318.085 39.0139 320.312 40.2045 322.736 40.6868C325.16 41.1692 327.673 40.9216 329.956 39.9755C332.24 39.0293 334.191 37.4271 335.565 35.3713C336.938 33.3156 337.671 30.8987 337.671 28.4263H340.581Z"/>
</mask>
<path d="M340.581 28.4263C340.581 31.4746 339.678 34.4544 337.985 36.9889C336.292 39.5234 333.885 41.4988 331.07 42.6653C328.255 43.8319 325.157 44.1371 322.168 43.5424C319.179 42.9477 316.434 41.4798 314.279 39.3244L316.337 37.2657C318.085 39.0139 320.312 40.2045 322.736 40.6868C325.16 41.1692 327.673 40.9216 329.956 39.9755C332.24 39.0293 334.191 37.4271 335.565 35.3713C336.938 33.3156 337.671 30.8987 337.671 28.4263H340.581Z" stroke="#80FF80" stroke-width="4" mask="url(#path-20-inside-2_317_621)"/>
<mask id="path-21-inside-3_317_621" fill="white">
<path d="M340.581 28.4263C340.581 25.8918 339.956 23.3964 338.762 21.1611C337.568 18.9258 335.841 17.0197 333.734 15.6116C331.627 14.2035 329.206 13.3368 326.684 13.0884C324.162 12.8399 321.619 13.2174 319.278 14.1873C316.937 15.1573 314.871 16.6897 313.264 18.649C311.656 20.6082 310.557 22.9337 310.062 25.4196C309.568 27.9054 309.694 30.4749 310.43 32.9003C311.165 35.3257 312.487 37.5322 314.279 39.3244L316.456 37.1464C315.023 35.7124 313.965 33.9468 313.376 32.0061C312.788 30.0655 312.687 28.0095 313.082 26.0205C313.478 24.0314 314.358 22.1707 315.644 20.603C316.93 19.0353 318.583 17.8091 320.456 17.033C322.329 16.2569 324.365 15.9549 326.382 16.1537C328.4 16.3525 330.337 17.0459 332.023 18.1726C333.709 19.2993 335.091 20.8245 336.046 22.6131C337.002 24.4016 337.502 26.3983 337.502 28.4263H340.581Z"/>
</mask>
<path d="M340.581 28.4263C340.581 25.8918 339.956 23.3964 338.762 21.1611C337.568 18.9258 335.841 17.0197 333.734 15.6116C331.627 14.2035 329.206 13.3368 326.684 13.0884C324.162 12.8399 321.619 13.2174 319.278 14.1873C316.937 15.1573 314.871 16.6897 313.264 18.649C311.656 20.6082 310.557 22.9337 310.062 25.4196C309.568 27.9054 309.694 30.4749 310.43 32.9003C311.165 35.3257 312.487 37.5322 314.279 39.3244L316.456 37.1464C315.023 35.7124 313.965 33.9468 313.376 32.0061C312.788 30.0655 312.687 28.0095 313.082 26.0205C313.478 24.0314 314.358 22.1707 315.644 20.603C316.93 19.0353 318.583 17.8091 320.456 17.033C322.329 16.2569 324.365 15.9549 326.382 16.1537C328.4 16.3525 330.337 17.0459 332.023 18.1726C333.709 19.2993 335.091 20.8245 336.046 22.6131C337.002 24.4016 337.502 26.3983 337.502 28.4263H340.581Z" stroke="#80FF80" stroke-width="4" mask="url(#path-21-inside-3_317_621)"/>
<path d="M335.575 28.5806C335.575 34.4126 330.849 39.1398 325.02 39.1398C319.19 39.1398 314.464 34.4126 314.464 28.5806C314.464 22.7487 319.19 18.0215 325.02 18.0215C330.849 18.0215 335.575 22.7487 335.575 28.5806Z" stroke="#80FFEA" stroke-width="2"/>
<path d="M347.593 28.1183C347.593 40.3342 337.693 50.2366 325.482 50.2366C313.271 50.2366 303.371 40.3342 303.371 28.1183C303.371 15.9024 313.271 6 325.482 6C337.693 6 347.593 15.9024 347.593 28.1183Z" stroke="#80FF80" stroke-width="2"/>
<g filter="url(#filter19_f_317_621)">
<path d="M509.372 104.408C509.372 112.794 502.576 119.591 494.194 119.591C485.812 119.591 479.016 112.794 479.016 104.408C479.016 96.0229 485.812 89.2256 494.194 89.2256C502.576 89.2256 509.372 96.0229 509.372 104.408Z" stroke="#80F7FF" stroke-width="2"/>
</g>
<g filter="url(#filter20_f_317_621)">
<path d="M503.764 104.624C503.764 110.03 499.382 114.413 493.978 114.413C488.574 114.413 484.193 110.03 484.193 104.624C484.193 99.2176 488.574 94.8354 493.978 94.8354C499.382 94.8354 503.764 99.2176 503.764 104.624Z" stroke="#FFF480" stroke-width="2"/>
</g>
<path d="M503.764 104.624C503.764 110.03 499.382 114.413 493.978 114.413C488.574 114.413 484.193 110.03 484.193 104.624C484.193 99.2176 488.574 94.8354 493.978 94.8354C499.382 94.8354 503.764 99.2176 503.764 104.624Z" stroke="#80FF80" stroke-width="2"/>
<path d="M509.372 104.408C509.372 112.794 502.576 119.591 494.194 119.591C485.812 119.591 479.016 112.794 479.016 104.408C479.016 96.0229 485.812 89.2256 494.194 89.2256C502.576 89.2256 509.372 96.0229 509.372 104.408Z" stroke="#80FF80" stroke-width="2"/>
<g filter="url(#filter21_f_317_621)">
<path d="M68.9092 66.4948C68.9092 75.1563 61.8899 82.1776 53.2313 82.1776C44.5728 82.1776 37.5535 75.1563 37.5535 66.4948C37.5535 57.8333 44.5728 50.812 53.2313 50.812C61.8899 50.812 68.9092 57.8333 68.9092 66.4948Z" stroke="#80F7FF"/>
</g>
<g filter="url(#filter22_f_317_621)">
<path d="M63.301 66.7104C63.301 72.3927 58.696 76.9989 53.0157 76.9989C47.3355 76.9989 42.7305 72.3927 42.7305 66.7104C42.7305 61.0281 47.3355 56.4219 53.0157 56.4219C58.696 56.4219 63.301 61.0281 63.301 66.7104Z" stroke="#FFF480"/>
</g>
<path d="M63.301 66.7104C63.301 72.3927 58.696 76.9989 53.0157 76.9989C47.3355 76.9989 42.7305 72.3927 42.7305 66.7104C42.7305 61.0281 47.3355 56.4219 53.0157 56.4219C58.696 56.4219 63.301 61.0281 63.301 66.7104Z" stroke="#80FF80"/>
<path d="M68.9092 66.4948C68.9092 75.1563 61.8899 82.1776 53.2313 82.1776C44.5728 82.1776 37.5535 75.1563 37.5535 66.4948C37.5535 57.8333 44.5728 50.812 53.2313 50.812C61.8899 50.812 68.9092 57.8333 68.9092 66.4948Z" stroke="#80FF80"/>
<g filter="url(#filter23_f_317_621)">
<path d="M68.4092 66.4948C68.4092 74.8803 61.6136 81.6776 53.2313 81.6776C44.8491 81.6776 38.0535 74.8803 38.0535 66.4948C38.0535 58.1093 44.8491 51.312 53.2313 51.312C61.6136 51.312 68.4092 58.1093 68.4092 66.4948Z" stroke="#80F7FF" stroke-width="2"/>
</g>
<g filter="url(#filter24_f_317_621)">
<path d="M62.801 66.7104C62.801 72.1167 58.4197 76.4989 53.0157 76.4989C47.6118 76.4989 43.2305 72.1167 43.2305 66.7104C43.2305 61.3041 47.6118 56.9219 53.0157 56.9219C58.4197 56.9219 62.801 61.3041 62.801 66.7104Z" stroke="#FFF480" stroke-width="2"/>
</g>
<path d="M62.801 66.7104C62.801 72.1167 58.4197 76.4989 53.0157 76.4989C47.6118 76.4989 43.2305 72.1167 43.2305 66.7104C43.2305 61.3041 47.6118 56.9219 53.0157 56.9219C58.4197 56.9219 62.801 61.3041 62.801 66.7104Z" stroke="#80FF80" stroke-width="2"/>
<path d="M68.4092 66.4948C68.4092 74.8803 61.6136 81.6776 53.2313 81.6776C44.8491 81.6776 38.0535 74.8803 38.0535 66.4948C38.0535 58.1093 44.8491 51.312 53.2313 51.312C61.6136 51.312 68.4092 58.1093 68.4092 66.4948Z" stroke="#80FF80" stroke-width="2"/>
<g filter="url(#filter25_f_317_621)">
<path d="M286.58 142.322C286.58 160.922 271.506 176 252.913 176C234.319 176 219.246 160.922 219.246 142.322C219.246 123.723 234.319 108.645 252.913 108.645C271.506 108.645 286.58 123.723 286.58 142.322Z" stroke="#80F7FF" stroke-width="2"/>
</g>
<g filter="url(#filter26_f_317_621)">
<path d="M274.562 142.785C274.562 155.001 264.662 164.903 252.45 164.903C240.239 164.903 230.339 155.001 230.339 142.785C230.339 130.569 240.239 120.667 252.45 120.667C264.662 120.667 274.562 130.569 274.562 142.785Z" stroke="#FFF480" stroke-width="2"/>
</g>
<path d="M274.562 142.785C274.562 155.001 264.662 164.903 252.45 164.903C240.239 164.903 230.339 155.001 230.339 142.785C230.339 130.569 240.239 120.667 252.45 120.667C264.662 120.667 274.562 130.569 274.562 142.785Z" stroke="#80FFA2" stroke-width="2"/>
<g filter="url(#filter27_f_317_621)">
<mask id="path-39-inside-4_317_621" fill="white">
<path d="M266.832 128.4C269.197 130.765 270.942 133.678 271.913 136.879C272.883 140.081 273.05 143.473 272.398 146.754C271.745 150.035 270.294 153.105 268.172 155.691C266.05 158.277 263.323 160.3 260.233 161.58C257.143 162.861 253.785 163.359 250.457 163.031C247.129 162.703 243.932 161.559 241.151 159.7C238.37 157.842 236.091 155.326 234.514 152.375C232.937 149.425 232.113 146.131 232.113 142.785L241.849 142.785C241.849 144.529 242.279 146.246 243.101 147.784C243.923 149.322 245.111 150.634 246.561 151.603C248.01 152.571 249.676 153.168 251.411 153.339C253.146 153.51 254.897 153.25 256.508 152.583C258.118 151.915 259.54 150.861 260.646 149.513C261.752 148.165 262.508 146.564 262.848 144.854C263.188 143.143 263.102 141.375 262.596 139.707C262.089 138.038 261.18 136.519 259.947 135.286L266.832 128.4Z"/>
</mask>
<path d="M266.832 128.4C269.197 130.765 270.942 133.678 271.913 136.879C272.883 140.081 273.05 143.473 272.398 146.754C271.745 150.035 270.294 153.105 268.172 155.691C266.05 158.277 263.323 160.3 260.233 161.58C257.143 162.861 253.785 163.359 250.457 163.031C247.129 162.703 243.932 161.559 241.151 159.7C238.37 157.842 236.091 155.326 234.514 152.375C232.937 149.425 232.113 146.131 232.113 142.785L241.849 142.785C241.849 144.529 242.279 146.246 243.101 147.784C243.923 149.322 245.111 150.634 246.561 151.603C248.01 152.571 249.676 153.168 251.411 153.339C253.146 153.51 254.897 153.25 256.508 152.583C258.118 151.915 259.54 150.861 260.646 149.513C261.752 148.165 262.508 146.564 262.848 144.854C263.188 143.143 263.102 141.375 262.596 139.707C262.089 138.038 261.18 136.519 259.947 135.286L266.832 128.4Z" stroke="#D9FF80" stroke-width="8" mask="url(#path-39-inside-4_317_621)"/>
</g>
<g filter="url(#filter28_f_317_621)">
<path d="M276.184 142.785C276.184 155.898 265.557 166.527 252.451 166.527C239.344 166.527 228.717 155.898 228.717 142.785C228.717 129.671 239.344 119.043 252.451 119.043C265.557 119.043 276.184 129.671 276.184 142.785Z" stroke="#FFB580" stroke-opacity="0.25" stroke-width="8"/>
</g>
<g filter="url(#filter29_f_317_621)">
<path d="M263.468 142.322C263.468 148.154 258.742 152.881 252.913 152.881C247.083 152.881 242.357 148.154 242.357 142.322C242.357 136.49 247.083 131.763 252.913 131.763C258.742 131.763 263.468 136.49 263.468 142.322Z" stroke="#FFB580" stroke-opacity="0.25" stroke-width="2"/>
</g>
<path d="M286.58 142.322C286.58 160.922 271.506 176 252.913 176C234.319 176 219.246 160.922 219.246 142.322C219.246 123.723 234.319 108.645 252.913 108.645C271.506 108.645 286.58 123.723 286.58 142.322Z" stroke="#80FF80" stroke-width="2"/>
<defs>
<filter id="filter0_f_317_621" x="10.1689" y="64.0322" width="492.883" height="80.7524" filterUnits="userSpaceOnUse" color-interpolation-filters="sRGB">
<feFlood flood-opacity="0" result="BackgroundImageFix"/>
<feBlend mode="normal" in="SourceGraphic" in2="BackgroundImageFix" result="shape"/>
<feGaussianBlur stdDeviation="0.5" result="effect1_foregroundBlur_317_621"/>
</filter>
<filter id="filter1_f_317_621" x="175.646" y="26.1182" width="408.954" height="80.7529" filterUnits="userSpaceOnUse" color-interpolation-filters="sRGB">
<feFlood flood-opacity="0" result="BackgroundImageFix"/>
<feBlend mode="normal" in="SourceGraphic" in2="BackgroundImageFix" result="shape"/>
<feGaussianBlur stdDeviation="0.5" result="effect1_foregroundBlur_317_621"/>
</filter>
<filter id="filter2_f_317_621" x="107.236" y="26.1187" width="360.687" height="80.7524" filterUnits="userSpaceOnUse" color-interpolation-filters="sRGB">
<feFlood flood-opacity="0" result="BackgroundImageFix"/>
<feBlend mode="normal" in="SourceGraphic" in2="BackgroundImageFix" result="shape"/>
<feGaussianBlur stdDeviation="0.5" result="effect1_foregroundBlur_317_621"/>
</filter>
<filter id="filter3_f_317_621" x="161.317" y="64.957" width="389.345" height="80.7524" filterUnits="userSpaceOnUse" color-interpolation-filters="sRGB">
<feFlood flood-opacity="0" result="BackgroundImageFix"/>
<feBlend mode="normal" in="SourceGraphic" in2="BackgroundImageFix" result="shape"/>
<feGaussianBlur stdDeviation="0.5" result="effect1_foregroundBlur_317_621"/>
</filter>
<filter id="filter4_f_317_621" x="465.923" y="21.5698" width="13.0934" height="13.0967" filterUnits="userSpaceOnUse" color-interpolation-filters="sRGB">
<feFlood flood-opacity="0" result="BackgroundImageFix"/>
<feBlend mode="normal" in="SourceGraphic" in2="BackgroundImageFix" result="shape"/>
<feGaussianBlur stdDeviation="0.5" result="effect1_foregroundBlur_317_621"/>
</filter>
<filter id="filter5_f_317_621" x="165.477" y="21.5698" width="13.0934" height="13.0967" filterUnits="userSpaceOnUse" color-interpolation-filters="sRGB">
<feFlood flood-opacity="0" result="BackgroundImageFix"/>
<feBlend mode="normal" in="SourceGraphic" in2="BackgroundImageFix" result="shape"/>
<feGaussianBlur stdDeviation="0.5" result="effect1_foregroundBlur_317_621"/>
</filter>
<filter id="filter6_f_317_621" x="161.779" y="17.8711" width="20.489" height="20.4946" filterUnits="userSpaceOnUse" color-interpolation-filters="sRGB">
<feFlood flood-opacity="0" result="BackgroundImageFix"/>
<feBlend mode="normal" in="SourceGraphic" in2="BackgroundImageFix" result="shape"/>
<feGaussianBlur stdDeviation="0.5" result="effect1_foregroundBlur_317_621"/>
</filter>
<filter id="filter7_f_317_621" x="0" y="59.4839" width="13.0935" height="13.0967" filterUnits="userSpaceOnUse" color-interpolation-filters="sRGB">
<feFlood flood-opacity="0" result="BackgroundImageFix"/>
<feBlend mode="normal" in="SourceGraphic" in2="BackgroundImageFix" result="shape"/>
<feGaussianBlur stdDeviation="0.5" result="effect1_foregroundBlur_317_621"/>
</filter>
<filter id="filter8_f_317_621" x="97.0674" y="98.3228" width="13.0934" height="13.0967" filterUnits="userSpaceOnUse" color-interpolation-filters="sRGB">
<feFlood flood-opacity="0" result="BackgroundImageFix"/>
<feBlend mode="normal" in="SourceGraphic" in2="BackgroundImageFix" result="shape"/>
<feGaussianBlur stdDeviation="0.5" result="effect1_foregroundBlur_317_621"/>
</filter>
<filter id="filter9_f_317_621" x="548.199" y="60.4087" width="13.0934" height="13.0967" filterUnits="userSpaceOnUse" color-interpolation-filters="sRGB">
<feFlood flood-opacity="0" result="BackgroundImageFix"/>
<feBlend mode="normal" in="SourceGraphic" in2="BackgroundImageFix" result="shape"/>
<feGaussianBlur stdDeviation="0.5" result="effect1_foregroundBlur_317_621"/>
</filter>
<filter id="filter10_f_317_621" x="544.501" y="56.7095" width="20.489" height="20.4946" filterUnits="userSpaceOnUse" color-interpolation-filters="sRGB">
<feFlood flood-opacity="0" result="BackgroundImageFix"/>
<feBlend mode="normal" in="SourceGraphic" in2="BackgroundImageFix" result="shape"/>
<feGaussianBlur stdDeviation="0.5" result="effect1_foregroundBlur_317_621"/>
</filter>
<filter id="filter11_f_317_621" x="580.906" y="98.3228" width="13.0934" height="13.0967" filterUnits="userSpaceOnUse" color-interpolation-filters="sRGB">
<feFlood flood-opacity="0" result="BackgroundImageFix"/>
<feBlend mode="normal" in="SourceGraphic" in2="BackgroundImageFix" result="shape"/>
<feGaussianBlur stdDeviation="0.5" result="effect1_foregroundBlur_317_621"/>
</filter>
<filter id="filter12_f_317_621" x="501.052" y="136.236" width="13.0934" height="13.0967" filterUnits="userSpaceOnUse" color-interpolation-filters="sRGB">
<feFlood flood-opacity="0" result="BackgroundImageFix"/>
<feBlend mode="normal" in="SourceGraphic" in2="BackgroundImageFix" result="shape"/>
<feGaussianBlur stdDeviation="0.5" result="effect1_foregroundBlur_317_621"/>
</filter>
<filter id="filter13_f_317_621" x="497.354" y="132.538" width="20.489" height="20.4946" filterUnits="userSpaceOnUse" color-interpolation-filters="sRGB">
<feFlood flood-opacity="0" result="BackgroundImageFix"/>
<feBlend mode="normal" in="SourceGraphic" in2="BackgroundImageFix" result="shape"/>
<feGaussianBlur stdDeviation="0.5" result="effect1_foregroundBlur_317_621"/>
</filter>
<filter id="filter14_f_317_621" x="150.685" y="137.161" width="13.0934" height="13.0967" filterUnits="userSpaceOnUse" color-interpolation-filters="sRGB">
<feFlood flood-opacity="0" result="BackgroundImageFix"/>
<feBlend mode="normal" in="SourceGraphic" in2="BackgroundImageFix" result="shape"/>
<feGaussianBlur stdDeviation="0.5" result="effect1_foregroundBlur_317_621"/>
</filter>
<filter id="filter15_f_317_621" x="146.988" y="133.462" width="20.489" height="20.4946" filterUnits="userSpaceOnUse" color-interpolation-filters="sRGB">
<feFlood flood-opacity="0" result="BackgroundImageFix"/>
<feBlend mode="normal" in="SourceGraphic" in2="BackgroundImageFix" result="shape"/>
<feGaussianBlur stdDeviation="0.5" result="effect1_foregroundBlur_317_621"/>
</filter>
<filter id="filter16_f_317_621" x="297.371" y="0" width="56.2225" height="56.2363" filterUnits="userSpaceOnUse" color-interpolation-filters="sRGB">
<feFlood flood-opacity="0" result="BackgroundImageFix"/>
<feBlend mode="normal" in="SourceGraphic" in2="BackgroundImageFix" result="shape"/>
<feGaussianBlur stdDeviation="2.5" result="effect1_foregroundBlur_317_621"/>
</filter>
<filter id="filter17_f_317_621" x="301.766" y="5.01416" width="46.8149" height="46.8242" filterUnits="userSpaceOnUse" color-interpolation-filters="sRGB">
<feFlood flood-opacity="0" result="BackgroundImageFix"/>
<feBlend mode="normal" in="SourceGraphic" in2="BackgroundImageFix" result="shape"/>
<feGaussianBlur stdDeviation="4" result="effect1_foregroundBlur_317_621"/>
</filter>
<filter id="filter18_f_317_621" x="303.917" y="6.54834" width="43.0623" height="43.1401" filterUnits="userSpaceOnUse" color-interpolation-filters="sRGB">
<feFlood flood-opacity="0" result="BackgroundImageFix"/>
<feBlend mode="normal" in="SourceGraphic" in2="BackgroundImageFix" result="shape"/>
<feGaussianBlur stdDeviation="2" result="effect1_foregroundBlur_317_621"/>
</filter>
<filter id="filter19_f_317_621" x="473.016" y="83.2256" width="42.3557" height="42.3657" filterUnits="userSpaceOnUse" color-interpolation-filters="sRGB">
<feFlood flood-opacity="0" result="BackgroundImageFix"/>
<feBlend mode="normal" in="SourceGraphic" in2="BackgroundImageFix" result="shape"/>
<feGaussianBlur stdDeviation="2.5" result="effect1_foregroundBlur_317_621"/>
</filter>
<filter id="filter20_f_317_621" x="479.193" y="89.8354" width="29.5706" height="29.5771" filterUnits="userSpaceOnUse" color-interpolation-filters="sRGB">
<feFlood flood-opacity="0" result="BackgroundImageFix"/>
<feBlend mode="normal" in="SourceGraphic" in2="BackgroundImageFix" result="shape"/>
<feGaussianBlur stdDeviation="2" result="effect1_foregroundBlur_317_621"/>
</filter>
<filter id="filter21_f_317_621" x="32.0535" y="45.312" width="42.3557" height="42.3657" filterUnits="userSpaceOnUse" color-interpolation-filters="sRGB">
<feFlood flood-opacity="0" result="BackgroundImageFix"/>
<feBlend mode="normal" in="SourceGraphic" in2="BackgroundImageFix" result="shape"/>
<feGaussianBlur stdDeviation="2.5" result="effect1_foregroundBlur_317_621"/>
</filter>
<filter id="filter22_f_317_621" x="38.2305" y="51.9219" width="29.5706" height="29.5771" filterUnits="userSpaceOnUse" color-interpolation-filters="sRGB">
<feFlood flood-opacity="0" result="BackgroundImageFix"/>
<feBlend mode="normal" in="SourceGraphic" in2="BackgroundImageFix" result="shape"/>
<feGaussianBlur stdDeviation="2" result="effect1_foregroundBlur_317_621"/>
</filter>
<filter id="filter23_f_317_621" x="32.0535" y="45.312" width="42.3557" height="42.3657" filterUnits="userSpaceOnUse" color-interpolation-filters="sRGB">
<feFlood flood-opacity="0" result="BackgroundImageFix"/>
<feBlend mode="normal" in="SourceGraphic" in2="BackgroundImageFix" result="shape"/>
<feGaussianBlur stdDeviation="2.5" result="effect1_foregroundBlur_317_621"/>
</filter>
<filter id="filter24_f_317_621" x="38.2305" y="51.9219" width="29.5706" height="29.5771" filterUnits="userSpaceOnUse" color-interpolation-filters="sRGB">
<feFlood flood-opacity="0" result="BackgroundImageFix"/>
<feBlend mode="normal" in="SourceGraphic" in2="BackgroundImageFix" result="shape"/>
<feGaussianBlur stdDeviation="2" result="effect1_foregroundBlur_317_621"/>
</filter>
<filter id="filter25_f_317_621" x="213.246" y="102.645" width="79.3337" height="79.355" filterUnits="userSpaceOnUse" color-interpolation-filters="sRGB">
<feFlood flood-opacity="0" result="BackgroundImageFix"/>
<feBlend mode="normal" in="SourceGraphic" in2="BackgroundImageFix" result="shape"/>
<feGaussianBlur stdDeviation="2.5" result="effect1_foregroundBlur_317_621"/>
</filter>
<filter id="filter26_f_317_621" x="225.339" y="115.667" width="54.2225" height="54.2363" filterUnits="userSpaceOnUse" color-interpolation-filters="sRGB">
<feFlood flood-opacity="0" result="BackgroundImageFix"/>
<feBlend mode="normal" in="SourceGraphic" in2="BackgroundImageFix" result="shape"/>
<feGaussianBlur stdDeviation="2" result="effect1_foregroundBlur_317_621"/>
</filter>
<filter id="filter27_f_317_621" x="231.113" y="127.399" width="42.6758" height="36.7295" filterUnits="userSpaceOnUse" color-interpolation-filters="sRGB">
<feFlood flood-opacity="0" result="BackgroundImageFix"/>
<feBlend mode="normal" in="SourceGraphic" in2="BackgroundImageFix" result="shape"/>
<feGaussianBlur stdDeviation="0.5" result="effect1_foregroundBlur_317_621"/>
</filter>
<filter id="filter28_f_317_621" x="214.717" y="105.043" width="75.467" height="75.4839" filterUnits="userSpaceOnUse" color-interpolation-filters="sRGB">
<feFlood flood-opacity="0" result="BackgroundImageFix"/>
<feBlend mode="normal" in="SourceGraphic" in2="BackgroundImageFix" result="shape"/>
<feGaussianBlur stdDeviation="5" result="effect1_foregroundBlur_317_621"/>
</filter>
<filter id="filter29_f_317_621" x="240.357" y="129.763" width="25.1112" height="25.1182" filterUnits="userSpaceOnUse" color-interpolation-filters="sRGB">
<feFlood flood-opacity="0" result="BackgroundImageFix"/>
<feBlend mode="normal" in="SourceGraphic" in2="BackgroundImageFix" result="shape"/>
<feGaussianBlur stdDeviation="0.5" result="effect1_foregroundBlur_317_621"/>
</filter>
<linearGradient id="paint0_linear_317_621" x1="256.61" y1="66.0322" x2="256.61" y2="142.785" gradientUnits="userSpaceOnUse">
<stop stop-color="#10917C"/>
<stop offset="1" stop-color="#80FFEA"/>
</linearGradient>
<linearGradient id="paint1_linear_317_621" x1="401.287" y1="28.1182" x2="401.287" y2="104.871" gradientUnits="userSpaceOnUse">
<stop stop-color="#10911F"/>
<stop offset="1" stop-color="#80FF80"/>
</linearGradient>
<linearGradient id="paint2_linear_317_621" x1="287.58" y1="104.871" x2="287.58" y2="28.1184" gradientUnits="userSpaceOnUse">
<stop stop-color="#10911F"/>
<stop offset="1" stop-color="#80FF80"/>
</linearGradient>
<linearGradient id="paint3_linear_317_621" x1="287.58" y1="143.709" x2="287.58" y2="66.9568" gradientUnits="userSpaceOnUse">
<stop stop-color="#109151"/>
<stop offset="1" stop-color="#80FFBF"/>
</linearGradient>
</defs>
</svg>
