<svg width="48" height="48" viewBox="0 0 48 48" fill="none" xmlns="http://www.w3.org/2000/svg">
<g clip-path="url(#clip0_113_520)">
<path d="M14.3001 22.2999C13.6057 22.9943 13.6057 24.1221 14.3001 24.8165L21.4112 31.9276C22.1057 32.6221 23.2335 32.6221 23.9279 31.9276C24.6224 31.2332 24.6224 30.1054 23.9279 29.411L19.8501 25.3332H40.4446C41.4279 25.3332 42.2224 24.5387 42.2224 23.5554C42.2224 22.5721 41.4279 21.7776 40.4446 21.7776H19.8501L23.9279 17.6999C24.6224 17.0054 24.6224 15.8776 23.9279 15.1832C23.2335 14.4887 22.1057 14.4887 21.4112 15.1832L14.3001 22.2943V22.2999Z" fill="white"/>
</g>
<path d="M36.8888 15.5557V11.5557C36.8888 9.34653 35.0979 7.55566 32.8888 7.55566H12.4443C10.2352 7.55566 8.44434 9.34652 8.44434 11.5557V36.4446C8.44434 38.6537 10.2352 40.4446 12.4443 40.4446H32.8888C35.0979 40.4446 36.8888 38.6537 36.8888 36.4446V31.5557" stroke="white" stroke-width="2" stroke-linecap="round"/>
<defs>
<clipPath id="clip0_113_520">
<rect width="28.4444" height="28.4444" fill="white" transform="translate(13.7778 9.33325)"/>
</clipPath>
</defs>
</svg>
